<svg id="Слой_1" data-name="Слой 1" xmlns="http://www.w3.org/2000/svg" viewBox="0 0 229.06 34.99"><defs><style>.cls-1{fill:#fff;}</style></defs><title>logo-white</title><path class="cls-1" d="M93.71,57.6A16.37,16.37,0,0,1,110.1,73.94a16.2,16.2,0,0,1-3.89,10.58c-.28.33-.61.66-.94,1a16.07,16.07,0,0,1-11.52,4.82H77.37V57.55ZM83.18,84.53H93.72a10.54,10.54,0,0,0,0-21.08H83.18Z" transform="translate(-28.65 -55.43)"/><path class="cls-1" d="M146.49,73.94A16.39,16.39,0,1,1,130.1,57.55,16.41,16.41,0,0,1,146.49,73.94Zm-5.85,0A10.54,10.54,0,1,0,130.1,84.48,10.55,10.55,0,0,0,140.64,73.94Z" transform="translate(-28.65 -55.43)"/><path class="cls-1" d="M182.83,57.55V90.33H177V69.45l-5.76,4.4-4.78,3.7-4.78-3.7-5.76-4.4V90.34h-5.85V57.55L155.9,62l10.54,8.1L177,62.05Z" transform="translate(-28.65 -55.43)"/><path class="cls-1" d="M220.29,57.55V90.33h-5.85V69.45l-5.76,4.4-4.78,3.7-4.78-3.7-5.76-4.4V90.34h-5.85V57.55l5.85,4.5,10.54,8.1,10.54-8.1Z" transform="translate(-28.65 -55.43)"/><path class="cls-1" d="M224.93,90.33H225l-.09.09Zm32.78-32.82L245,73.95l-.7.89V90.29h-5.85V74.93l-.8-1L225,57.51h7.4l9,11.66,9-11.66Zm0,32.82h0v.09Z" transform="translate(-28.65 -55.43)"/><polygon class="cls-1" points="34.92 18.31 34.92 10.08 17.46 0 0 10.08 0 18.31 17.46 8.23 34.92 18.31"/><polygon class="cls-1" points="34.92 29.01 34.92 20.78 17.46 10.7 17.46 10.7 0 20.78 0 29.01 17.46 18.93 34.92 29.01"/><polygon class="cls-1" points="26.72 34.97 33.85 30.86 17.46 21.4 17.46 21.4 1.07 30.86 8.19 34.97 17.46 29.63 26.72 34.97"/></svg>