<?xml version="1.0" encoding="utf-8"?>
<!-- Generator: Adobe Illustrator 24.1.2, SVG Export Plug-In . SVG Version: 6.00 Build 0)  -->
<svg version="1.1" id="Слой_1" xmlns="http://www.w3.org/2000/svg" xmlns:xlink="http://www.w3.org/1999/xlink" x="0px" y="0px"
	 viewBox="0 0 283.46 141.73" style="enable-background:new 0 0 283.46 141.73;" xml:space="preserve">
<style type="text/css">
	.st0{fill:#333333;}
	.st1{fill-rule:evenodd;clip-rule:evenodd;fill:#FF5A5F;}
	.st2{fill:#293D7C;}
	.st3{fill-rule:evenodd;clip-rule:evenodd;fill:#333333;}
	.st4{fill-rule:evenodd;clip-rule:evenodd;fill:#293D7C;}
	.st5{fill-rule:evenodd;clip-rule:evenodd;fill:#F40F25;}
	.st6{fill-rule:evenodd;clip-rule:evenodd;fill:#D61016;}
	.st7{fill-rule:evenodd;clip-rule:evenodd;fill:#B21715;}
	.st8{fill:#182B54;}
	.st9{fill-rule:evenodd;clip-rule:evenodd;fill:#00B3D9;}
	.st10{fill:#12100D;}
	.st11{fill-rule:evenodd;clip-rule:evenodd;fill:#EFAA00;}
	.st12{fill:#F39200;}
	.st13{fill:#3B3735;}
	.st14{fill:#FFFFFF;}
</style>
<g>
	<g>
		<path class="st0" d="M93.71,57.6c9.04,0,16.39,7.31,16.39,16.34c0,4.03-1.45,7.73-3.89,10.58c-0.28,0.33-0.61,0.66-0.94,0.98
			c-2.95,3-7.02,4.82-11.52,4.82H77.37V57.55L93.71,57.6z M83.18,84.53h10.54c5.81,0,10.54-4.73,10.54-10.54
			c0-5.81-4.73-10.54-10.54-10.54H83.18V84.53z"/>
		<path class="st0" d="M146.49,73.94c0,9.04-7.35,16.39-16.39,16.39c-9.04,0-16.39-7.35-16.39-16.39c0-9.04,7.35-16.39,16.39-16.39
			C139.14,57.55,146.49,64.9,146.49,73.94z M140.64,73.94c0-5.81-4.73-10.54-10.54-10.54c-5.81,0-10.54,4.73-10.54,10.54
			c0,5.81,4.73,10.54,10.54,10.54C135.91,84.48,140.64,79.75,140.64,73.94z"/>
		<path class="st0" d="M182.83,57.55v32.78h-5.85V69.45l-5.76,4.4l-4.78,3.7l-4.78-3.7l-5.76-4.4v20.89h-5.85V57.55l5.85,4.5
			l10.54,8.1l10.54-8.1L182.83,57.55z"/>
		<path class="st0" d="M220.29,57.55v32.78h-5.85V69.45l-5.76,4.4l-4.78,3.7l-4.78-3.7l-5.76-4.4v20.89h-5.85V57.55l5.85,4.5
			l10.54,8.1l10.54-8.1L220.29,57.55z"/>
		<path class="st0" d="M224.93,90.33h0.09l-0.09,0.09V90.33z M257.71,57.51l-12.69,16.44l-0.7,0.89v15.45h-5.85V74.93l-0.8-0.98
			l-12.69-16.44h7.4l8.99,11.66l8.99-11.66H257.71z M257.66,90.33h0.05v0.09L257.66,90.33z"/>
	</g>
	<g>
		<polygon class="st1" points="63.57,73.74 63.57,65.51 46.11,55.43 28.65,65.51 28.65,73.74 46.11,63.66 63.57,73.74 		"/>
		<polygon class="st1" points="63.57,84.44 63.57,76.21 46.11,66.13 46.11,66.13 28.65,76.21 28.65,84.44 46.11,74.36 63.57,84.44 
					"/>
		<polygon class="st1" points="55.37,90.4 62.5,86.29 46.11,76.83 46.11,76.83 29.72,86.29 36.84,90.4 46.11,85.06 55.37,90.4 		"/>
	</g>
</g>
</svg>
